<mxfile host="www.draw.io" modified="2019-11-30T17:58:00.261Z" agent="Mozilla/5.0 (Windows NT 10.0; Win64; x64) AppleWebKit/537.36 (KHTML, like Gecko) Chrome/78.0.3904.108 Safari/537.36" etag="fynSTExKUPnf8iXmd_9j" version="12.3.3" type="github" pages="1">
  <diagram id="ZGEHd0PWxLt-L6l-D7eG" name="Page-1">
    <mxGraphModel dx="395" dy="777" grid="1" gridSize="10" guides="1" tooltips="1" connect="1" arrows="1" fold="1" page="1" pageScale="1" pageWidth="850" pageHeight="1100" math="0" shadow="0">
      <root>
        <mxCell id="0"/>
        <mxCell id="1" parent="0"/>
        <mxCell id="FVUf9RGVRMpiP8-GXH7a-2" value="Begin" style="strokeWidth=2;html=1;shape=mxgraph.flowchart.terminator;whiteSpace=wrap;" vertex="1" parent="1">
          <mxGeometry x="375" y="90" width="100" height="60" as="geometry"/>
        </mxCell>
        <mxCell id="FVUf9RGVRMpiP8-GXH7a-4" value="Read_line" style="shape=process;whiteSpace=wrap;html=1;backgroundOutline=1;" vertex="1" parent="1">
          <mxGeometry x="365" y="170" width="120" height="60" as="geometry"/>
        </mxCell>
        <mxCell id="FVUf9RGVRMpiP8-GXH7a-5" value="Read_sentense" style="shape=process;whiteSpace=wrap;html=1;backgroundOutline=1;" vertex="1" parent="1">
          <mxGeometry x="365" y="250" width="120" height="60" as="geometry"/>
        </mxCell>
        <mxCell id="FVUf9RGVRMpiP8-GXH7a-23" value="" style="edgeStyle=orthogonalEdgeStyle;rounded=0;orthogonalLoop=1;jettySize=auto;html=1;" edge="1" parent="1" source="FVUf9RGVRMpiP8-GXH7a-6">
          <mxGeometry relative="1" as="geometry">
            <mxPoint x="425" y="470" as="targetPoint"/>
          </mxGeometry>
        </mxCell>
        <mxCell id="FVUf9RGVRMpiP8-GXH7a-6" value="Read_word" style="shape=process;whiteSpace=wrap;html=1;backgroundOutline=1;" vertex="1" parent="1">
          <mxGeometry x="365" y="330" width="120" height="60" as="geometry"/>
        </mxCell>
        <mxCell id="FVUf9RGVRMpiP8-GXH7a-7" value="Read_Character" style="shape=process;whiteSpace=wrap;html=1;backgroundOutline=1;" vertex="1" parent="1">
          <mxGeometry x="365" y="410" width="120" height="60" as="geometry"/>
        </mxCell>
        <mxCell id="FVUf9RGVRMpiP8-GXH7a-8" value="Char_upper" style="shape=process;whiteSpace=wrap;html=1;backgroundOutline=1;" vertex="1" parent="1">
          <mxGeometry x="365" y="490" width="120" height="60" as="geometry"/>
        </mxCell>
        <mxCell id="FVUf9RGVRMpiP8-GXH7a-9" value="Char_lower" style="shape=process;whiteSpace=wrap;html=1;backgroundOutline=1;" vertex="1" parent="1">
          <mxGeometry x="365" y="570" width="120" height="60" as="geometry"/>
        </mxCell>
        <mxCell id="FVUf9RGVRMpiP8-GXH7a-10" value="Special_char" style="shape=process;whiteSpace=wrap;html=1;backgroundOutline=1;" vertex="1" parent="1">
          <mxGeometry x="365" y="650" width="120" height="60" as="geometry"/>
        </mxCell>
        <mxCell id="FVUf9RGVRMpiP8-GXH7a-11" value="Untill&lt;br&gt;NoMoreFileText" style="rhombus;whiteSpace=wrap;html=1;" vertex="1" parent="1">
          <mxGeometry x="350" y="740" width="150" height="80" as="geometry"/>
        </mxCell>
        <mxCell id="FVUf9RGVRMpiP8-GXH7a-12" value="End" style="strokeWidth=2;html=1;shape=mxgraph.flowchart.terminator;whiteSpace=wrap;" vertex="1" parent="1">
          <mxGeometry x="375" y="850" width="100" height="60" as="geometry"/>
        </mxCell>
        <mxCell id="FVUf9RGVRMpiP8-GXH7a-13" value="" style="endArrow=none;html=1;exitX=0.5;exitY=1;exitDx=0;exitDy=0;entryX=0.5;entryY=0;entryDx=0;entryDy=0;entryPerimeter=0;" edge="1" parent="1" source="FVUf9RGVRMpiP8-GXH7a-11" target="FVUf9RGVRMpiP8-GXH7a-12">
          <mxGeometry width="50" height="50" relative="1" as="geometry">
            <mxPoint x="350" y="980" as="sourcePoint"/>
            <mxPoint x="400" y="930" as="targetPoint"/>
          </mxGeometry>
        </mxCell>
        <mxCell id="FVUf9RGVRMpiP8-GXH7a-18" value="" style="endArrow=none;html=1;exitX=0.5;exitY=1;exitDx=0;exitDy=0;entryX=0.5;entryY=0;entryDx=0;entryDy=0;" edge="1" parent="1" source="FVUf9RGVRMpiP8-GXH7a-10" target="FVUf9RGVRMpiP8-GXH7a-11">
          <mxGeometry width="50" height="50" relative="1" as="geometry">
            <mxPoint x="350" y="980" as="sourcePoint"/>
            <mxPoint x="400" y="930" as="targetPoint"/>
          </mxGeometry>
        </mxCell>
        <mxCell id="FVUf9RGVRMpiP8-GXH7a-19" value="" style="endArrow=none;html=1;exitX=0.5;exitY=1;exitDx=0;exitDy=0;" edge="1" parent="1" source="FVUf9RGVRMpiP8-GXH7a-9">
          <mxGeometry width="50" height="50" relative="1" as="geometry">
            <mxPoint x="475" y="870" as="sourcePoint"/>
            <mxPoint x="425" y="650" as="targetPoint"/>
          </mxGeometry>
        </mxCell>
        <mxCell id="FVUf9RGVRMpiP8-GXH7a-20" value="" style="endArrow=none;html=1;exitX=0.5;exitY=1;exitDx=0;exitDy=0;entryX=0.5;entryY=0;entryDx=0;entryDy=0;" edge="1" parent="1" source="FVUf9RGVRMpiP8-GXH7a-8" target="FVUf9RGVRMpiP8-GXH7a-9">
          <mxGeometry width="50" height="50" relative="1" as="geometry">
            <mxPoint x="485" y="880" as="sourcePoint"/>
            <mxPoint x="485" y="910" as="targetPoint"/>
          </mxGeometry>
        </mxCell>
        <mxCell id="FVUf9RGVRMpiP8-GXH7a-21" value="" style="endArrow=none;html=1;exitX=0.5;exitY=1;exitDx=0;exitDy=0;entryX=0.5;entryY=0;entryDx=0;entryDy=0;" edge="1" parent="1" source="FVUf9RGVRMpiP8-GXH7a-7" target="FVUf9RGVRMpiP8-GXH7a-8">
          <mxGeometry width="50" height="50" relative="1" as="geometry">
            <mxPoint x="495" y="890" as="sourcePoint"/>
            <mxPoint x="495" y="920" as="targetPoint"/>
          </mxGeometry>
        </mxCell>
        <mxCell id="FVUf9RGVRMpiP8-GXH7a-29" value="" style="endArrow=none;html=1;exitX=0.5;exitY=1;exitDx=0;exitDy=0;exitPerimeter=0;entryX=0.5;entryY=0;entryDx=0;entryDy=0;" edge="1" parent="1" source="FVUf9RGVRMpiP8-GXH7a-2" target="FVUf9RGVRMpiP8-GXH7a-4">
          <mxGeometry width="50" height="50" relative="1" as="geometry">
            <mxPoint x="290" y="260" as="sourcePoint"/>
            <mxPoint x="280" y="380" as="targetPoint"/>
          </mxGeometry>
        </mxCell>
        <mxCell id="FVUf9RGVRMpiP8-GXH7a-30" value="" style="endArrow=none;html=1;exitX=0.5;exitY=1;exitDx=0;exitDy=0;entryX=0.5;entryY=0;entryDx=0;entryDy=0;" edge="1" parent="1" source="FVUf9RGVRMpiP8-GXH7a-4" target="FVUf9RGVRMpiP8-GXH7a-5">
          <mxGeometry width="50" height="50" relative="1" as="geometry">
            <mxPoint x="260" y="320" as="sourcePoint"/>
            <mxPoint x="260" y="370" as="targetPoint"/>
          </mxGeometry>
        </mxCell>
        <mxCell id="FVUf9RGVRMpiP8-GXH7a-31" value="" style="endArrow=none;html=1;exitX=0.5;exitY=1;exitDx=0;exitDy=0;entryX=0.5;entryY=0;entryDx=0;entryDy=0;" edge="1" parent="1" source="FVUf9RGVRMpiP8-GXH7a-5" target="FVUf9RGVRMpiP8-GXH7a-6">
          <mxGeometry width="50" height="50" relative="1" as="geometry">
            <mxPoint x="435" y="240" as="sourcePoint"/>
            <mxPoint x="435" y="260" as="targetPoint"/>
          </mxGeometry>
        </mxCell>
        <mxCell id="FVUf9RGVRMpiP8-GXH7a-32" value="" style="endArrow=classic;html=1;exitX=0;exitY=0.5;exitDx=0;exitDy=0;" edge="1" parent="1" source="FVUf9RGVRMpiP8-GXH7a-11">
          <mxGeometry width="50" height="50" relative="1" as="geometry">
            <mxPoint x="350" y="980" as="sourcePoint"/>
            <mxPoint x="360" y="190" as="targetPoint"/>
            <Array as="points">
              <mxPoint x="270" y="780"/>
              <mxPoint x="270" y="480"/>
              <mxPoint x="270" y="190"/>
            </Array>
          </mxGeometry>
        </mxCell>
        <mxCell id="FVUf9RGVRMpiP8-GXH7a-33" value="Repeat" style="text;html=1;strokeColor=none;fillColor=none;align=center;verticalAlign=middle;whiteSpace=wrap;rounded=0;" vertex="1" parent="1">
          <mxGeometry x="460" y="150" width="40" height="20" as="geometry"/>
        </mxCell>
        <mxCell id="FVUf9RGVRMpiP8-GXH7a-34" value="True" style="text;html=1;strokeColor=none;fillColor=none;align=center;verticalAlign=middle;whiteSpace=wrap;rounded=0;" vertex="1" parent="1">
          <mxGeometry x="465" y="810" width="40" height="20" as="geometry"/>
        </mxCell>
        <mxCell id="FVUf9RGVRMpiP8-GXH7a-36" value="False" style="text;html=1;strokeColor=none;fillColor=none;align=center;verticalAlign=middle;whiteSpace=wrap;rounded=0;" vertex="1" parent="1">
          <mxGeometry x="290" y="740" width="40" height="20" as="geometry"/>
        </mxCell>
      </root>
    </mxGraphModel>
  </diagram>
</mxfile>
